<?xml version="1.0" encoding="UTF-8" standalone="no"?>
<!-- Created with Inkscape (http://www.inkscape.org/) -->

<svg
   xmlns:dc="http://purl.org/dc/elements/1.1/"
   xmlns:cc="http://creativecommons.org/ns#"
   xmlns:rdf="http://www.w3.org/1999/02/22-rdf-syntax-ns#"
   xmlns:svg="http://www.w3.org/2000/svg"
   xmlns="http://www.w3.org/2000/svg"
   xmlns:sodipodi="http://sodipodi.sourceforge.net/DTD/sodipodi-0.dtd"
   xmlns:inkscape="http://www.inkscape.org/namespaces/inkscape"
   width="210mm"
   height="297mm"
   viewBox="0 0 210 297"
   version="1.1"
   id="svg8"
   inkscape:version="0.92.1 r15371"
   sodipodi:docname="Рекс.svg">
  <defs
     id="defs2" />
  <sodipodi:namedview
     id="base"
     pagecolor="#ffffff"
     bordercolor="#666666"
     borderopacity="1.0"
     inkscape:pageopacity="0.0"
     inkscape:pageshadow="2"
     inkscape:zoom="15.839192"
     inkscape:cx="212.21656"
     inkscape:cy="460.73636"
     inkscape:document-units="mm"
     inkscape:current-layer="layer1"
     showgrid="false"
     inkscape:window-width="1280"
     inkscape:window-height="706"
     inkscape:window-x="-8"
     inkscape:window-y="-8"
     inkscape:window-maximized="1" />
  <metadata
     id="metadata5">
    <rdf:RDF>
      <cc:Work
         rdf:about="">
        <dc:format>image/svg+xml</dc:format>
        <dc:type
           rdf:resource="http://purl.org/dc/dcmitype/StillImage" />
        <dc:title></dc:title>
      </cc:Work>
    </rdf:RDF>
  </metadata>
  <g
     inkscape:label="Layer 1"
     inkscape:groupmode="layer"
     id="layer1">
    <path
       style="fill:#000000;stroke-width:0.26458332"
       id="path12"
       d="m 53.855318,175.41378 c 0.0021,-0.0682 0.02445,-0.12255 0.06219,-0.17848 0.03099,-0.0418 0.06854,-0.075 0.113736,-0.10037 0.03907,-0.0198 0.08097,-0.0304 0.123994,-0.0371 0.03924,-0.005 0.07888,-0.005 0.118391,-0.006 0.04183,1.3e-4 0.08366,1.3e-4 0.125492,1.4e-4 0.03289,0.003 0.0648,-0.005 0.0971,-0.01 0.01728,-0.006 0.03493,-0.0108 0.05273,-0.015 0,0 0.02244,0.0964 0.02244,0.0964 v 0 c -0.02045,0.005 -0.04021,0.0116 -0.06067,0.0163 -0.03711,0.005 -0.07403,0.0132 -0.111792,0.0104 -0.04158,-1.6e-4 -0.08316,-5.3e-4 -0.12474,-2.1e-4 -0.03476,2.4e-4 -0.06962,2.7e-4 -0.104183,0.005 -0.03173,0.005 -0.06234,0.0121 -0.09136,0.0262 -0.03223,0.0169 -0.05791,0.0404 -0.08056,0.069 -0.02638,0.0376 -0.04369,0.0763 -0.04356,0.12324 0,0 -0.09921,0 -0.09921,0 z"
       inkscape:connector-curvature="0" />
    <path
       style="fill:#000000;stroke-width:0.26458332"
       id="path14"
       d="m 53.937823,175.35424 c -0.0013,0.039 -0.0016,0.0779 0.0079,0.11592 0.0073,0.0311 0.02175,0.0599 0.04153,0.0848 0.01897,0.0195 0.0433,0.0304 0.06796,0.0409 0.03075,0.0165 0.06465,0.0236 0.09893,0.0279 0.02886,0.004 0.05724,0.005 0.08516,-0.004 0.03105,-0.007 0.06011,-0.0182 0.08828,-0.0329 0.02371,-0.012 0.04441,-0.028 0.06535,-0.044 0.01537,-0.0122 0.02635,-0.0266 0.0369,-0.043 0.02064,-0.0283 0.04849,-0.0497 0.0741,-0.0731 0.024,-0.0188 0.04936,-0.0356 0.074,-0.0535 0.02109,-0.0178 0.04247,-0.0351 0.06514,-0.051 0.0164,-0.0115 0.0074,-0.006 0.02715,-0.0175 0,0 0.05071,0.085 0.05071,0.085 v 0 c -0.01373,0.008 -0.0065,0.003 -0.02141,0.014 -0.02252,0.0153 -0.04274,0.0328 -0.0637,0.0501 -0.02186,0.0155 -0.04389,0.0308 -0.06568,0.0463 -0.01976,0.0177 -0.04048,0.0344 -0.05769,0.0547 -0.01693,0.025 -0.03548,0.0484 -0.05953,0.067 -0.02561,0.0193 -0.05125,0.0383 -0.07989,0.053 -0.03418,0.0176 -0.06971,0.0306 -0.106982,0.0401 -0.04118,0.0109 -0.0825,0.0134 -0.124793,0.007 -0.04317,-0.006 -0.08611,-0.015 -0.125212,-0.0351 -0.03992,-0.0174 -0.07847,-0.0374 -0.107032,-0.0714 -0.0276,-0.0366 -0.04895,-0.0776 -0.05915,-0.12261 -0.01016,-0.0456 -0.01236,-0.0916 -0.01125,-0.13833 0,0 0.09921,0 0.09921,0 z"
       inkscape:connector-curvature="0" />
    <path
       style="fill:#000000;stroke-width:0.26458332"
       id="path16"
       d="m 54.154979,175.67162 c 0.0011,0.0341 -0.0054,0.0705 0.0072,0.10315 0.0061,0.0169 0.0173,0.0327 0.03083,0.0447 0.02604,0.0247 0.03516,0.0589 0.04554,0.092 0.0062,0.0199 0.0191,0.0339 0.03824,0.0416 0.01209,0.002 0.03852,0.0134 0.04891,0.002 0.02471,-0.008 0.04558,-0.0222 0.06596,-0.0383 0.02798,-0.022 0.0543,-0.0459 0.08128,-0.069 0.02381,-0.016 0.04966,-0.0282 0.07394,-0.0435 0.01831,-0.01 0.0381,-0.0197 0.05286,-0.0348 0.01651,-0.0145 0.03351,-0.0291 0.04807,-0.0457 0.01175,-0.0139 0.03106,-0.0238 0.03663,-0.0419 -7.94e-4,1.9e-4 -0.0013,2.7e-4 -0.0021,5.3e-4 0,0 0.09807,0.0144 0.09807,0.0144 v 0 c -0.0019,0.009 -0.0039,0.0175 -0.0058,0.0262 -0.01318,0.0267 -0.03127,0.0487 -0.05392,0.068 -0.01722,0.0182 -0.03539,0.0357 -0.05441,0.052 -0.02032,0.0177 -0.04238,0.0337 -0.06676,0.0453 -0.02037,0.0127 -0.04107,0.0245 -0.06263,0.0349 -0.02826,0.0235 -0.05554,0.0482 -0.08437,0.0711 -0.02842,0.0223 -0.05819,0.0416 -0.09246,0.0537 -0.04288,0.0134 -0.08511,0.0118 -0.126863,-0.006 -0.04231,-0.0221 -0.07427,-0.054 -0.08899,-0.10058 -0.0056,-0.0175 -0.0087,-0.0375 -0.02125,-0.0514 -0.02397,-0.0248 -0.04518,-0.0526 -0.05533,-0.0861 -0.01191,-0.0433 -0.01273,-0.0873 -0.01191,-0.13198 0,0 0.09921,0 0.09921,0 z"
       inkscape:connector-curvature="0" />
    <path
       style="fill:#000000;stroke-width:0.26458332"
       id="path18"
       d="m 54.599969,175.22551 c -0.01561,0.0105 -0.06647,0.0416 -0.06896,0.0592 0.0068,-0.0111 0.0088,-0.011 0.0041,-0.0286 -0.0031,-0.0116 -0.01185,-0.0148 -0.0097,-0.0157 0.0051,-0.002 0.01101,0.001 0.01651,0.002 0.01783,5.3e-4 0.04248,0.005 0.057,-0.009 0.01788,-0.012 0.03454,-0.0268 0.04873,-0.0431 0.0046,-0.003 0.0082,-0.0374 0.0045,-0.0236 0.0024,0.0125 0.0066,0.0103 -0.0057,0.0105 -0.005,6e-5 -0.0099,0.002 -0.01487,0.003 -0.01783,0.008 -0.03819,0.0119 -0.05357,0.0249 0,0 -0.05659,-0.0814 -0.05659,-0.0814 v 0 c 0.03056,-0.02 0.0641,-0.0341 0.09993,-0.0418 0.05129,-0.005 0.09891,0.005 0.124947,0.0538 0.01148,0.0485 0.0041,0.0821 -0.02566,0.12227 -0.02151,0.0228 -0.04457,0.0448 -0.07139,0.0612 -0.03714,0.0199 -0.07556,0.0273 -0.117698,0.022 -0.06083,-0.007 -0.110887,-0.0323 -0.08664,-0.10457 0.02727,-0.0424 0.06789,-0.0731 0.110789,-0.099 0,0 0.04432,0.0886 0.04432,0.0886 z"
       inkscape:connector-curvature="0" />
    <path
       style="fill:#000000;stroke-width:0.26458332"
       id="path20"
       d="m 54.452477,175.02395 c 0.0327,-0.009 0.06588,-0.0214 0.09372,-0.0414 0.02053,-0.0119 0.03475,-0.0309 0.04834,-0.0499 0.01794,-0.0258 0.04188,-0.0451 0.06553,-0.0652 0.03027,-0.026 0.06761,-0.0352 0.106204,-0.04 0.02793,-0.008 0.0566,-0.0132 0.08556,-0.0162 0.03044,-0.003 0.06081,-0.004 0.09121,-5.3e-4 0,0 -0.01095,0.0982 -0.01095,0.0982 v 0 c -0.02318,-0.003 -0.04688,-1.1e-4 -0.07019,8e-4 -0.0285,0.003 -0.05609,0.009 -0.08392,0.016 -0.01939,0.002 -0.03873,0.004 -0.05417,0.0175 -0.01791,0.0149 -0.03606,0.0286 -0.04945,0.0481 -0.02082,0.0279 -0.04274,0.0557 -0.0733,0.0735 -0.0363,0.0233 -0.07582,0.0409 -0.117195,0.0533 0,0 -0.03135,-0.0941 -0.03135,-0.0941 z"
       inkscape:connector-curvature="0" />
    <path
       style="fill:#000000;stroke-width:0.26458332"
       id="path22"
       d="m 54.624443,175.00909 c 0.03312,-0.0235 0.06348,-0.0505 0.09454,-0.0766 0.02757,-0.0233 0.05922,-0.0419 0.09196,-0.0569 0.04023,-0.016 0.08101,-0.0182 0.122838,-0.009 0.04563,0.0162 0.08186,0.0483 0.111421,0.0857 0.01887,0.0278 0.0358,0.0561 0.06107,0.0786 0.01519,0.0142 0.02931,0.0284 0.04194,0.045 0,0 -0.08061,0.0578 -0.08061,0.0578 v 0 c -0.007,-0.0126 -0.02037,-0.0195 -0.02917,-0.0307 -0.02791,-0.027 -0.05069,-0.0576 -0.07133,-0.0904 -0.01535,-0.0208 -0.03506,-0.0388 -0.05828,-0.0503 -0.01871,-0.007 -0.03898,-0.002 -0.05766,0.004 -0.02484,0.0104 -0.04833,0.0253 -0.06909,0.0423 -0.03406,0.0279 -0.06735,0.0567 -0.10272,0.083 0,0 -0.05492,-0.0824 -0.05492,-0.0824 z"
       inkscape:connector-curvature="0" />
    <path
       style="fill:#000000;stroke-width:0.26458332"
       id="path24"
       d="m 54.269272,175.07287 c 0.02003,-0.0382 0.04336,-0.0744 0.06654,-0.11072 0.01902,-0.0237 0.03442,-0.0498 0.05121,-0.075 0.01577,-0.0298 0.03677,-0.0552 0.06236,-0.0769 0.03346,-0.0237 0.07107,-0.0374 0.110919,-0.0456 0.04257,-0.006 0.08573,-0.008 0.128524,-0.004 0.04764,0.008 0.06663,0.0333 0.08598,0.0744 0,0 -0.09122,0.0376 -0.09122,0.0376 v 0 c -0.0013,-0.01 0.0046,-0.0104 -0.0048,-0.0139 -0.03281,-0.004 -0.0665,1e-4 -0.09927,0.003 -0.02424,0.005 -0.04661,0.0124 -0.06768,0.0255 -0.01902,0.0138 -0.03049,0.0349 -0.04228,0.0548 -0.01646,0.0249 -0.03189,0.0506 -0.05093,0.0737 -0.02291,0.0352 -0.04593,0.0705 -0.06426,0.10836 0,0 -0.0851,-0.0511 -0.0851,-0.0511 z"
       inkscape:connector-curvature="0" />
    <path
       style="fill:#000000;stroke-width:0.26458332"
       id="path26"
       d="m 54.423495,175.62131 c 0.01812,0.008 0.03663,0.0168 0.05603,0.0219 0.0063,0.002 0.02418,0.004 0.01966,-5.3e-4 -0.0041,-0.004 -0.0071,0.003 -0.01064,0.002 -0.0011,-2e-4 0.0021,-0.0331 0.0024,-0.0344 0.0013,-0.0346 -0.0062,-0.0779 0.02582,-0.10266 0.01061,-0.008 0.02471,-0.0104 0.03708,-0.0156 0.04413,-0.003 0.08049,0.0211 0.119491,0.0372 0.0044,0.001 0.0086,0.003 0.01307,0.004 0.0021,5.3e-4 0.0044,0.001 0.0062,1e-4 0.0036,-0.002 -0.0082,-0.002 -0.01201,-8e-4 -0.0036,0.001 -0.0062,0.005 -0.01,0.006 -0.0011,2.5e-4 -5.29e-4,-0.002 -7.93e-4,-0.003 0.0069,-0.0324 7.93e-4,-0.0647 0.0047,-0.0971 0.0039,-0.008 0.0071,-0.0173 0.01159,-0.0255 0.01855,-0.0338 0.0024,0.004 0.0021,0.006 -0.0016,0.008 0.0021,0.014 0.0049,0.0208 -0.0031,-0.002 -0.0013,-7.9e-4 -0.0054,-0.003 0,0 0.05474,-0.0828 0.05474,-0.0828 v 0 c 0.02082,0.0146 0.0114,0.007 0.02851,0.0234 0.01595,0.0272 0.0214,0.0406 0.01037,0.0721 -0.0016,0.005 -0.005,0.008 -0.0077,0.0124 -7.93e-4,0.001 -0.0026,0.005 -0.0029,0.003 -7.93e-4,-0.003 0.0011,-0.006 0.0016,-0.009 -0.0029,0.0335 0.003,0.0724 -0.0074,0.10695 -0.0033,0.009 -0.0048,0.0199 -0.01,0.0285 -0.02716,0.0455 -0.07513,0.0474 -0.119573,0.0295 -0.02188,-0.009 -0.04426,-0.0191 -0.0649,-0.0304 0.0056,-0.004 0.01222,-0.007 0.01664,-0.0121 0.0031,-0.004 0.004,-0.009 0.005,-0.0135 1.64e-4,-7.9e-4 -0.0019,-0.002 -0.0019,-0.002 -0.0021,0.0174 0.0019,0.0355 -5.29e-4,0.0529 -0.0028,0.0497 -0.01109,0.0967 -0.06042,0.12101 -0.0093,0.002 -0.01836,0.005 -0.02784,0.006 -0.04275,0.004 -0.08373,-0.0183 -0.122084,-0.0334 0,0 0.04432,-0.0886 0.04432,-0.0886 z"
       inkscape:connector-curvature="0" />
    <path
       style="fill:#000000;stroke-width:0.26458332"
       id="path28"
       d="m 54.693465,175.71293 c 0.04486,0.004 0.08591,0.0168 0.125267,0.0382 0.0167,0.008 0.03863,0.0243 0.05808,0.0149 0.02162,-0.009 0.04101,-0.0236 0.06234,-0.0342 0.0063,-0.002 0.01259,-0.005 0.01889,-0.007 0,0 0.03397,0.0929 0.03397,0.0929 v 0 c -0.0033,10e-4 -0.0065,0.002 -0.0098,0.003 -0.02918,0.0135 -0.05372,0.0368 -0.08651,0.0422 -0.04505,0.007 -0.08598,-0.001 -0.124851,-0.0257 -0.0295,-0.0169 -0.05944,-0.0252 -0.09373,-0.0267 0,0 0.0163,-0.0978 0.0163,-0.0978 z"
       inkscape:connector-curvature="0" />
    <path
       style="fill:#000000;stroke-width:0.26458332"
       id="path30"
       d="m 55.123831,175.12038 c -0.0011,0.0371 0.0051,0.0739 0.0149,0.10952 0.0035,0.0249 0.0173,0.0419 0.03172,0.0609 0.0226,0.0288 0.04102,0.0606 0.05806,0.093 0.01643,0.0317 0.03827,0.0599 0.05914,0.0887 0.01437,0.0168 0.0274,0.0348 0.04785,0.0444 0,0 -0.04741,0.0869 -0.04741,0.0869 v 0 c -0.03256,-0.0187 -0.0584,-0.0434 -0.0806,-0.0736 -0.02334,-0.0327 -0.04785,-0.0649 -0.06643,-0.10066 -0.01429,-0.0276 -0.03023,-0.0546 -0.04957,-0.079 -0.02188,-0.029 -0.04147,-0.0583 -0.04801,-0.095 -0.01164,-0.0441 -0.01839,-0.0895 -0.01884,-0.13521 0,0 0.09921,0 0.09921,0 z"
       inkscape:connector-curvature="0" />
    <path
       style="fill:#000000;stroke-width:0.26458332"
       id="path32"
       d="m 54.93966,175.7945 c 0.03205,0.0514 0.05953,0.10553 0.08354,0.16106 0.01918,0.045 0.0403,0.0892 0.05445,0.13619 0.01032,0.0377 0.01201,0.0767 0.01281,0.1155 5.29e-4,0.0292 -0.0019,0.0581 0.0039,0.0867 0.0091,0.0239 0.02426,0.044 0.03956,0.0641 0.01654,0.0139 0.02769,0.0362 0.04722,0.0465 0.03136,0.0187 0.05168,0.0435 0.06655,0.0767 0.01042,0.0322 0.0058,0.0155 0.01352,0.0501 0,0 -0.09603,0.021 -0.09603,0.021 v 0 c -0.0048,-0.0222 -0.0021,-0.012 -0.0078,-0.0309 -0.0083,-0.0188 -0.01169,-0.023 -0.03178,-0.0349 -0.0269,-0.0193 -0.04871,-0.0439 -0.07039,-0.0689 -0.02429,-0.0321 -0.04737,-0.0656 -0.05804,-0.105 -0.0064,-0.0344 -0.0058,-0.0687 -0.0055,-0.10355 -5.29e-4,-0.0301 -0.0013,-0.0604 -0.0086,-0.0897 -0.01228,-0.0434 -0.03279,-0.0838 -0.04972,-0.12545 -0.02127,-0.0501 -0.0458,-0.0993 -0.07606,-0.14467 0,0 0.08238,-0.0549 0.08238,-0.0549 z"
       inkscape:connector-curvature="0" />
    <path
       style="fill:#000000;stroke-width:0.26458332"
       id="path34"
       d="m 55.206931,175.32678 c 0.02061,0.0387 0.04257,0.0763 0.06643,0.11307 0.02453,0.0363 0.04801,0.0733 0.07367,0.10886 0.01968,0.0221 0.03167,0.0593 0.06022,0.0721 0.02222,0.0158 0.04731,0.0256 0.0736,0.0321 0.03759,0.0113 0.07632,0.017 0.11398,0.028 0.03148,0.007 0.06227,0.0131 0.0917,0.0267 0.02736,0.0143 0.0534,0.031 0.07742,0.0503 0.0209,0.0165 0.03986,0.0355 0.06155,0.0511 0.03095,0.0199 0.06099,0.0412 0.09155,0.0617 0.03587,0.0239 0.06566,0.0546 0.09718,0.0835 0.03333,0.0295 0.05538,0.0679 0.07954,0.10467 0.024,0.0386 0.0437,0.0796 0.06757,0.11828 0.01643,0.0269 0.04207,0.0438 0.0635,0.0659 0.0046,0.008 0.0092,0.0158 0.01381,0.0237 0,0 -0.08971,0.0423 -0.08971,0.0423 v 0 c 0.0011,5.2e-4 0.0021,0.001 0.0033,0.002 -0.0096,-0.0115 -0.0222,-0.0193 -0.03298,-0.0297 -0.01609,-0.0156 -0.02791,-0.0348 -0.04175,-0.0522 -0.02315,-0.0379 -0.04294,-0.0776 -0.06596,-0.11562 -0.01987,-0.0301 -0.03739,-0.062 -0.06443,-0.0866 -0.02756,-0.0258 -0.0537,-0.0528 -0.08524,-0.0741 -0.03152,-0.0214 -0.06285,-0.043 -0.09484,-0.0636 -0.02315,-0.0172 -0.04451,-0.0364 -0.06663,-0.0548 -0.01728,-0.0157 -0.03848,-0.0264 -0.0586,-0.0379 -0.02093,-0.0153 -0.05205,-0.01 -0.075,-0.0205 -0.03641,-0.0109 -0.07398,-0.0164 -0.110484,-0.0271 -0.03571,-0.009 -0.0706,-0.022 -0.10105,-0.0434 -0.03791,-0.0252 -0.06348,-0.0609 -0.0878,-0.099 -0.02667,-0.037 -0.05165,-0.0751 -0.07715,-0.11286 -0.0232,-0.0365 -0.04472,-0.0738 -0.06582,-0.11154 0,0 0.08238,-0.0549 0.08238,-0.0549 z"
       inkscape:connector-curvature="0" />
    <path
       style="fill:#000000;stroke-width:0.26458332"
       id="path36"
       d="m 56.24196,176.21204 c 0.02479,0.0439 0.05424,0.0838 0.08851,0.12068 0.04962,0.0516 0.104841,0.0977 0.16275,0.13966 0.03875,0.029 0.08047,0.0534 0.125487,0.0712 0.04376,0.0132 0.0895,0.0193 0.134569,0.0268 0.03954,0.004 0.07804,0.0134 0.117258,0.0192 0.03797,0.003 0.07532,0.008 0.112769,0.0145 0.035,0.006 0.07057,0.007 0.105997,0.008 0.03206,0.001 0.06371,0.002 0.09536,-0.004 0.03774,-0.0106 0.07462,-0.0239 0.111559,-0.0371 0.04745,-0.0145 0.09381,-0.0323 0.140671,-0.0485 0.04398,-0.0102 0.08539,-0.0272 0.125336,-0.0478 0.0424,-0.0199 0.08422,-0.0413 0.127101,-0.0602 0.04614,-0.0181 0.0891,-0.0431 0.133538,-0.0649 0.03921,-0.0198 0.07839,-0.041 0.119731,-0.0559 0.01143,0 0.02458,-0.006 0.03428,2e-5 0.01805,0.0112 0.03362,0.0283 0.04235,0.0477 0.01633,0.0363 -0.05015,0.1301 -0.06801,0.15865 -0.05974,0.093 -0.124257,0.1829 -0.192035,0.27018 -0.03578,0.0396 -0.06403,0.0843 -0.09017,0.13047 -0.02331,0.0469 -0.05744,0.0853 -0.0965,0.11953 -0.03511,0.031 -0.07477,0.0562 -0.115817,0.0785 -0.04121,0.0244 -0.08573,0.0423 -0.129947,0.0603 -0.04156,0.018 -0.08451,0.0316 -0.127479,0.0457 -0.03234,0.009 -0.0637,0.0209 -0.09415,0.0349 -0.03683,0.0177 -0.07567,0.0271 -0.115919,0.033 -0.04633,0.006 -0.09307,0.006 -0.139666,0.006 -0.03916,0.002 -0.07869,-0.003 -0.117684,0.002 -0.04899,0.006 -0.09801,0.0121 -0.147407,0.0109 -0.0076,-8e-4 -0.01524,-0.001 -0.02286,-0.002 0,0 0.0096,-0.0981 0.0096,-0.0981 v 0 c 0.0057,5.2e-4 0.01138,0.001 0.01707,0.002 0.04487,0.003 0.08966,-0.006 0.134165,-0.0106 0.04205,-0.004 0.08421,-0.002 0.126394,-0.002 0.04215,-2.6e-4 0.08442,-5.3e-4 0.126352,-0.005 0.03113,-0.004 0.06067,-0.0117 0.08905,-0.0257 0.03391,-0.0153 0.06892,-0.0283 0.104701,-0.0385 0.04065,-0.013 0.08129,-0.0255 0.120512,-0.0426 0.04105,-0.017 0.0825,-0.0333 0.120592,-0.0564 0.03478,-0.0184 0.06822,-0.0397 0.09792,-0.0657 0.03103,-0.0269 0.0576,-0.0568 0.07546,-0.0943 0.0288,-0.0503 0.06069,-0.0984 0.09991,-0.14134 0.06655,-0.0836 0.129482,-0.17018 0.186108,-0.26083 0.0082,-0.0137 0.01675,-0.0271 0.02468,-0.0409 0.006,-0.0104 0.0114,-0.0212 0.01717,-0.0318 0.0026,-0.005 0.004,-0.0103 0.0079,-0.014 0.0024,-0.002 0.03645,0.0424 0.05347,0.0248 -0.01632,0.003 -0.0029,-2.4e-4 -0.02858,0.0124 -0.02585,0.0127 -0.05324,0.0223 -0.07783,0.0376 -0.04563,0.0226 -0.09026,0.0473 -0.137525,0.0664 -0.04117,0.0181 -0.08097,0.0394 -0.121703,0.0584 -0.04416,0.0223 -0.08993,0.041 -0.138181,0.0526 -0.04665,0.016 -0.09258,0.0342 -0.139814,0.0485 -0.04244,0.015 -0.08465,0.0309 -0.128386,0.0419 -0.03787,0.006 -0.07571,0.006 -0.114014,0.005 -0.04033,-0.001 -0.08084,-0.003 -0.120674,-0.009 -0.0365,-0.007 -0.07281,-0.0115 -0.109837,-0.0142 -0.03992,-0.006 -0.0791,-0.0155 -0.119277,-0.0198 -0.05191,-0.009 -0.104767,-0.0158 -0.154783,-0.0326 -0.05244,-0.0214 -0.101616,-0.0491 -0.146471,-0.0838 -0.06226,-0.0463 -0.122373,-0.0959 -0.176461,-0.15158 -0.03909,-0.0418 -0.0725,-0.0872 -0.102291,-0.13612 0,0 0.08509,-0.0511 0.08509,-0.0511 z"
       inkscape:connector-curvature="0" />
    <path
       style="fill:#000000;stroke-width:0.26458332"
       id="path40"
       d="m 55.945997,176.86445 c -0.02699,0.0419 -0.04586,0.0872 -0.05738,0.13551 -0.01093,0.0546 -0.01278,0.11035 -0.01389,0.16585 7.94e-4,0.0465 -0.0028,0.0934 0.0019,0.1397 0.0024,0.0347 0.01042,0.0676 0.01947,0.1009 0.01045,0.0201 0.01836,0.0422 0.03291,0.0599 0.0063,0.005 0.0055,0.006 0.0052,5.3e-4 0,0 -0.0381,0.0912 -0.0381,0.0912 v 0 c -0.03642,-0.0194 -0.02156,-0.008 -0.04624,-0.0325 -0.02061,-0.0287 -0.03718,-0.0601 -0.04926,-0.0934 -0.0104,-0.0389 -0.01886,-0.0778 -0.0218,-0.11806 -0.004,-0.05 -0.0021,-0.10026 -0.0021,-0.1504 0.0013,-0.0625 0.0045,-0.1253 0.01709,-0.18675 0.01421,-0.0579 0.03623,-0.11237 0.06706,-0.16359 0,0 0.08509,0.0511 0.08509,0.0511 z"
       inkscape:connector-curvature="0" />
    <path
       style="fill:#000000;stroke-width:0.26458332"
       id="path42"
       d="m 56.183789,177.48615 c 0.02315,-0.0494 0.0405,-0.10088 0.05655,-0.15289 0.01558,-0.0477 0.03418,-0.0944 0.04503,-0.14352 0.01267,-0.0446 0.01953,-0.0902 0.02328,-0.13627 -2.65e-4,-0.0368 0.0072,-0.0751 0.0011,-0.11159 -0.0051,-0.0257 -0.01749,-0.0496 -0.02948,-0.0727 0,0 0.08774,-0.0453 0.08774,-0.0453 v 0 c 0.0173,0.0337 0.03442,0.0684 0.03987,0.10621 0.0043,0.0437 0.0011,0.0877 -0.0013,0.13143 -0.0042,0.0507 -0.01183,0.10088 -0.02537,0.14995 -0.01191,0.0515 -0.03034,0.10091 -0.04748,0.15087 -0.01646,0.0525 -0.03376,0.10475 -0.05583,0.1552 0,0 -0.09407,-0.0314 -0.09407,-0.0314 z"
       inkscape:connector-curvature="0" />
    <path
       style="fill:#000000;stroke-width:0.26458332"
       id="path44"
       d="m 55.906257,177.48384 c -0.0076,0.0448 -0.01881,0.089 -0.03134,0.13265 -0.01238,0.0372 -0.03378,0.0701 -0.0426,0.10849 -0.0044,0.0317 -0.0099,0.0647 -0.0056,0.0967 0.0032,0.032 0.01315,0.0622 0.02469,0.092 0.0071,0.0261 0.02127,0.0478 0.03727,0.0689 0.0163,0.0249 0.03527,0.0479 0.05365,0.0714 0.02191,0.0303 0.03791,0.065 0.0515,0.0998 0.01206,0.0347 0.01389,0.0714 0.01506,0.10778 0.0032,0.0401 -7.94e-4,0.0775 -0.01553,0.11493 -0.01564,0.0344 -0.04292,0.0589 -0.07029,0.0837 -0.02974,0.0303 -0.06199,0.0585 -0.09046,0.09 -0.02088,0.023 -0.04348,0.0445 -0.0638,0.0679 -0.0066,0.007 -0.0199,0.0551 -0.01304,0.023 0.0087,-0.004 -0.01638,-0.0299 -0.01476,-0.0303 0.0049,-0.001 0.01003,-1.2e-4 0.01503,-5.3e-4 0.01963,-0.002 0.03912,-0.005 0.05868,-0.007 0.03587,-0.006 0.07187,-0.0115 0.107535,-0.0188 0.0042,-8e-4 0.03462,-0.008 0.04101,-0.008 0.0108,7.9e-4 0.02125,0.004 0.03185,0.006 0.0027,0.0286 0.01206,0.0573 0.008,0.0857 -0.0013,0.008 -0.09394,0.0477 -0.106124,0.0532 -0.02061,0.0114 -0.04288,0.0197 -0.06253,0.0329 -0.0034,0.002 -0.0066,0.005 -0.0094,0.008 -2.65e-4,2.6e-4 5.29e-4,0.002 7.93e-4,0.001 0.0039,-0.005 0.007,-0.0114 0.01045,-0.0171 -0.0024,-0.0121 -0.0046,-0.0243 -0.0069,-0.0364 -7.93e-4,-10e-4 -0.0035,-0.003 -0.0027,-0.004 1.54e-4,-2.7e-4 0.0042,0.002 0.01233,0.004 0.01,0.002 0.01318,0.003 0.02371,0.004 0.03071,0.003 0.0539,-0.0104 0.08638,-0.0117 0.02545,0.009 0.04446,0.01 0.05369,0.0417 0.0087,0.03 -0.0021,0.0408 -0.0149,0.0622 -0.0048,0.008 -0.0061,0.009 -0.0019,0.005 0.02154,-0.0452 -0.03031,-0.0474 -0.05026,-0.058 -0.0024,-0.001 0.0053,-0.001 0.0078,-0.002 0.0083,-0.003 0.01638,-0.006 0.02458,-0.009 0.03531,-0.0128 0.0652,-0.0365 0.09705,-0.0559 0.02191,-0.019 0.05024,-0.0288 0.07238,-0.0473 0.02143,-0.0173 0.04299,-0.034 0.06607,-0.0493 0.02259,-0.0137 0.04648,-0.027 0.06552,-0.0456 0.0181,-0.0157 0.02958,-0.0337 0.03597,-0.0565 -0.0036,-0.0196 -0.01632,-0.0369 -0.0267,-0.0536 -0.01863,-0.0256 -0.04094,-0.0484 -0.06041,-0.0734 -0.02601,-0.0323 -0.04398,-0.0697 -0.06348,-0.10595 -0.01556,-0.0347 -0.03337,-0.0683 -0.05054,-0.1022 -0.01304,-0.0331 -0.02997,-0.0642 -0.04235,-0.0975 -0.01294,-0.0385 -0.0159,-0.079 -0.01723,-0.11929 -2.64e-4,-0.0492 0.01656,-0.094 0.03799,-0.1374 0.02016,-0.0369 0.04569,-0.0707 0.06503,-0.10803 0.01598,-0.0309 0.03117,-0.062 0.04812,-0.0923 0.01429,-0.0269 0.02461,-0.0553 0.03384,-0.0843 0.0097,-0.0317 0.01259,-0.0647 0.01431,-0.0976 0.0013,-0.0329 0.0011,-0.0659 0.0011,-0.0988 -5.3e-5,-0.0194 0.0011,-0.0112 -0.0016,-0.0247 0,0 0.09803,-0.0136 0.09803,-0.0136 v 0 c 0.0031,0.0269 0.0024,0.0142 0.0024,0.0381 6.6e-5,0.0348 2.65e-4,0.0695 -0.0011,0.10428 -0.0024,0.0413 -0.0066,0.0826 -0.019,0.12224 -0.01125,0.0353 -0.02379,0.0701 -0.04154,0.10278 -0.01677,0.0297 -0.03156,0.0602 -0.0473,0.0904 -0.01971,0.0361 -0.04343,0.0698 -0.06391,0.10551 -0.0145,0.0286 -0.0269,0.0573 -0.02759,0.0899 0.0011,0.0299 0.0024,0.0601 0.01143,0.0889 0.01061,0.0299 0.02701,0.0572 0.03784,0.087 0.01656,0.0332 0.03388,0.0659 0.04884,0.0999 0.01712,0.0316 0.03263,0.0643 0.05524,0.0925 0.02111,0.0279 0.04717,0.052 0.06616,0.0816 0.0255,0.0414 0.04821,0.0846 0.03704,0.13488 -0.01278,0.0392 -0.03274,0.0732 -0.06399,0.1008 -0.02376,0.0207 -0.04965,0.039 -0.07718,0.0543 -0.02125,0.0142 -0.04112,0.0298 -0.06096,0.0459 -0.02619,0.019 -0.05518,0.0334 -0.08125,0.0526 -0.03735,0.0223 -0.07221,0.0498 -0.113749,0.0642 -0.0099,0.004 -0.03762,0.0176 -0.04709,0.0162 -0.04612,-0.007 -0.07778,-0.0119 -0.06415,-0.07 0.0044,-0.0111 0.0073,-0.0213 0.01482,-0.0307 5.29e-4,-5.3e-4 2.64e-4,0.002 5.29e-4,0.002 0.0011,0.009 -0.0011,0.0183 0.0028,0.0263 0.01037,0.022 0.0182,0.0198 0.03662,0.023 0.0035,-0.004 0.003,-0.003 -0.0093,2.6e-4 -0.02944,0.007 -0.05816,0.0167 -0.08897,0.01 -0.02408,-0.004 -0.08112,-0.0135 -0.09425,-0.0369 -0.0079,-0.0141 -0.01,-0.0307 -0.01503,-0.046 0.0043,-0.0101 0.0071,-0.0209 0.01283,-0.0302 0.0218,-0.0352 0.07309,-0.0446 0.105354,-0.0657 0.02508,-0.0115 0.05,-0.0238 0.07502,-0.0352 5.29e-4,-2.2e-4 7.93e-4,8e-4 0.0013,0.001 0.0064,0.0248 0.01281,0.0496 0.01921,0.0745 0.0079,7.9e-4 0.01593,5.2e-4 0.02365,0.002 0.0035,8e-4 -0.0072,2.1e-4 -0.01072,8e-4 -0.0084,0.001 -0.01669,0.003 -0.02508,0.005 -0.0099,0.002 -0.06501,0.0112 -0.07258,0.0125 -0.01333,0.002 -0.02666,0.005 -0.04,0.007 -0.04694,0.006 -0.117864,0.0269 -0.15517,-0.0152 -0.0074,-0.008 -0.0098,-0.0199 -0.01468,-0.0299 3.2e-5,-0.009 -0.0011,-0.0185 9.5e-5,-0.0276 0.0036,-0.027 0.02471,-0.0526 0.03764,-0.0751 0.02122,-0.0233 0.04354,-0.0456 0.06524,-0.0685 0.03094,-0.0332 0.06478,-0.0637 0.09636,-0.0963 0.01622,-0.0149 0.03345,-0.0288 0.04507,-0.0477 0.01116,-0.0269 0.01005,-0.0453 0.0085,-0.0749 -7.93e-4,-0.0254 -0.0013,-0.0511 -0.0087,-0.0756 -0.0094,-0.0257 -0.02135,-0.0511 -0.03649,-0.0738 -0.01894,-0.0238 -0.03841,-0.0475 -0.05513,-0.0729 -0.02154,-0.0285 -0.04019,-0.0585 -0.05044,-0.0931 -0.01458,-0.0381 -0.0268,-0.077 -0.03082,-0.11784 -0.0035,-0.0433 -1.08e-4,-0.087 0.0081,-0.12963 0.01,-0.0395 0.02761,-0.0753 0.04382,-0.11245 0.01164,-0.0399 0.02244,-0.0803 0.02803,-0.12161 0,0 0.09785,0.0163 0.09785,0.0163 z"
       inkscape:connector-curvature="0" />
    <path
       style="fill:#000000;stroke-width:0.26458332"
       id="path46"
       d="m 55.734013,176.84053 c -0.04419,0.0517 -0.08322,0.10738 -0.117748,0.16595 -0.02772,0.0466 -0.05245,0.0953 -0.06609,0.14792 -0.0082,0.0385 -0.01767,0.0765 -0.02204,0.11564 -0.0054,0.0334 -0.0019,0.0657 0.0032,0.0988 0.0039,0.0362 0.0098,0.072 0.01603,0.10792 0.0075,0.0333 0.01601,0.0674 0.03141,0.098 0.01397,0.0283 0.02442,0.058 0.03603,0.0872 0.01365,0.0303 0.01622,0.0645 0.03047,0.0945 0.0081,0.0235 0.02029,0.0441 0.03404,0.0645 0.01921,0.0239 0.03007,0.0533 0.04885,0.0774 0.02711,0.0334 0.03958,0.0719 0.04217,0.11416 -0.0026,0.0506 -0.03592,0.0852 -0.06686,0.12144 -0.02445,0.027 -0.05191,0.0495 -0.07338,0.079 -0.0016,0.005 -0.02853,0.041 -0.02429,0.0422 0.003,7.9e-4 0.0026,-0.004 0.003,-0.0129 0.03349,-0.006 -0.02421,-0.0183 -0.0159,-0.0218 0.0037,-0.002 0.0079,0.002 0.01154,0.003 0.03445,0.0149 0.04149,0.0319 0.04695,0.067 -0.0016,0.0239 -0.01037,0.0393 -0.02215,0.059 -0.0011,0.002 -0.004,0.007 -0.0031,0.006 0.01114,-0.0228 0.0067,-2.6e-4 -0.0055,-0.0509 0.04693,-0.0515 -0.03748,-0.003 -0.03405,-0.0153 0.0011,-0.004 0.03601,-0.009 0.05042,-0.0121 0.02273,-0.0101 0.04448,-0.0223 0.06672,-0.0334 0.03528,-0.0161 0.06559,-0.0391 0.0954,-0.0633 0.02708,-0.0269 0.06034,-0.0465 0.09235,-0.0669 0.02647,-0.014 0.04423,-0.036 0.06137,-0.0597 0.01413,-0.0199 0.01773,-0.0432 0.02106,-0.0668 0,0 0.09749,0.0145 0.09749,0.0145 v 0 c -0.006,0.0391 -0.01476,0.0775 -0.03859,0.11012 -0.02445,0.0338 -0.05174,0.0646 -0.08857,0.0854 -0.02897,0.0181 -0.0588,0.0357 -0.08314,0.0599 -0.03547,0.0285 -0.07185,0.0554 -0.113133,0.0752 -0.02928,0.0146 -0.0574,0.0321 -0.08892,0.0417 -0.01302,0.003 -0.06413,0.017 -0.0726,0.0156 -0.01347,-0.002 -0.02529,-0.0104 -0.03793,-0.0156 -0.01447,-0.045 -0.02204,-0.0361 -0.008,-0.0688 0.0016,-0.004 0.0042,-0.007 0.0063,-0.0104 5.29e-4,-2.6e-4 0.0013,-2.6e-4 0.0016,-8e-4 0.0013,-0.002 5.3e-4,-0.007 0.0027,-0.006 0.0024,8e-4 5.29e-4,0.005 7.93e-4,0.007 0.0054,0.0125 0.0038,0.0114 0.01942,0.0233 0.0016,10e-4 0.0078,0.002 0.0059,10e-4 -0.02708,-0.0115 -0.0452,-0.0104 -0.06115,-0.041 -0.0024,-0.01 -0.0064,-0.0194 -0.0071,-0.0295 -0.0024,-0.0369 0.02387,-0.0649 0.04126,-0.0942 0.02305,-0.0314 0.05101,-0.0569 0.07796,-0.0847 0.01503,-0.0177 0.03301,-0.0343 0.0431,-0.0553 0.0032,-0.021 -0.01143,-0.0416 -0.02286,-0.0578 -0.0186,-0.0261 -0.03263,-0.0548 -0.0516,-0.0806 -0.01709,-0.0255 -0.03204,-0.0519 -0.04259,-0.0808 -0.01291,-0.0317 -0.02,-0.065 -0.0315,-0.0971 -0.01087,-0.0276 -0.02093,-0.0555 -0.03393,-0.0822 -0.0173,-0.0393 -0.03035,-0.0805 -0.03871,-0.12263 -0.0063,-0.0365 -0.01273,-0.0728 -0.01648,-0.10959 -0.0064,-0.0416 -0.0097,-0.083 -0.0035,-0.12499 0.0051,-0.0441 0.01516,-0.0869 0.02516,-0.13002 0.01691,-0.061 0.04434,-0.11812 0.07751,-0.17205 0.03921,-0.0652 0.08276,-0.12751 0.131061,-0.18633 0,0 0.07003,0.07 0.07003,0.07 z"
       inkscape:connector-curvature="0" />
    <path
       style="fill:#000000;stroke-width:0.26458332"
       id="path48"
       d="m 55.433335,176.07213 c -0.04907,0.0447 -0.09938,0.0883 -0.146309,0.1353 -0.0385,0.0387 -0.07806,0.0766 -0.114808,0.11692 -0.01151,0.0203 -0.03072,0.0359 -0.04087,0.0569 -0.0072,0.0265 -0.007,0.0547 -0.0078,0.082 0.0031,0.0299 0.01384,0.0597 0.02907,0.0856 0.01418,0.0255 0.03371,0.0476 0.05069,0.0714 0.02032,0.0242 0.038,0.051 0.05226,0.0792 0.01529,0.0364 0.01863,0.0756 0.01606,0.11456 -0.0024,0.042 -0.02553,0.0758 -0.04623,0.1106 -0.0163,0.0264 -0.03749,0.0488 -0.05733,0.0724 -0.01886,0.0185 -0.03321,0.0403 -0.05131,0.0597 -0.0208,0.0237 -0.03609,0.0512 -0.05188,0.0783 -0.01413,0.0307 -0.02824,0.0614 -0.0419,0.0923 -0.0075,0.0242 -0.01749,0.0517 -0.01341,0.0773 0.0021,-0.0147 0.0037,-0.0152 -0.02125,-0.0311 -7.94e-4,-5.3e-4 -0.0277,-0.003 -0.0268,-0.005 0.0024,-0.004 0.0067,-0.007 0.01003,-0.0106 0.0047,-0.005 0.0092,-0.0102 0.01378,-0.0153 0.02447,-0.0205 0.05059,-0.0701 0.089,-0.0664 0.01506,0.001 0.02833,0.0106 0.0425,0.0159 0.01871,0.0263 0.02336,0.0473 0.02117,0.0783 -0.0011,0.014 -0.0057,0.0274 -0.005,0.0414 0.0036,0.0182 -0.0038,-0.0208 -0.01431,-0.0291 -0.01029,-0.008 -0.02609,-0.005 -0.03829,-0.01 -0.0019,-8e-4 0.0033,-0.003 0.0049,-0.004 0.0097,-0.008 0.01648,-0.0152 0.02612,-0.0245 0.03586,-0.036 0.08565,-0.069 0.132784,-0.028 0.0076,0.007 0.01132,0.0167 0.01699,0.0251 -0.0027,-0.0177 0.01677,0.0803 0.004,0.0643 -0.0036,-0.004 0.0068,-0.0157 0.0013,-0.0171 -0.09785,-0.0253 -0.108384,0.0263 -0.09245,-0.024 0.0077,-0.0319 0.02056,-0.0613 0.03647,-0.0898 0.0177,-0.0258 0.02828,-0.0553 0.04293,-0.0827 0.01429,-0.028 0.034,-0.0528 0.05558,-0.0754 0.01778,-0.0184 0.02845,-0.0417 0.03739,-0.0655 0.01286,-0.0318 0.02753,-0.0618 0.04558,-0.091 0.01672,-0.0249 0.03286,-0.0502 0.04204,-0.0789 0.0063,-0.0234 0.0088,-0.047 0.0044,-0.0707 -0.01011,-0.0215 -0.02175,-0.0429 -0.03233,-0.0644 -0.02021,-0.0396 -0.03675,-0.0809 -0.05363,-0.12192 -0.01103,-0.0245 -0.0145,-0.0512 -0.02278,-0.0764 0,0 0.09453,-0.0289 0.09453,-0.0289 v 0 c 0.0066,0.0227 0.01066,0.046 0.01934,0.0681 0.01588,0.0391 0.03173,0.0783 0.05121,0.11576 0.01458,0.03 0.03284,0.0585 0.04133,0.0912 0.0063,0.0401 0.0032,0.0799 -0.0084,0.11888 -0.01241,0.0356 -0.03011,0.0684 -0.05149,0.0994 -0.01484,0.024 -0.02706,0.0483 -0.03773,0.0745 -0.01423,0.036 -0.03124,0.0715 -0.05874,0.0994 -0.01622,0.0151 -0.02903,0.0341 -0.03956,0.0534 -0.01572,0.027 -0.0245,0.0579 -0.04313,0.0834 -0.01294,0.0231 -0.02328,0.0464 -0.02859,0.0726 -0.06517,0.16675 -0.124761,-0.0417 -0.0952,-0.009 0.03014,0.0216 0.05083,-0.0102 0.02368,0.0122 -0.006,0.005 -0.01146,0.0104 -0.01717,0.0156 -0.01278,0.0124 -0.04592,0.0484 -0.06395,0.0508 -0.05075,0.007 -0.08024,-0.001 -0.08172,-0.0575 0.0016,-0.0252 4.5e-5,-0.0131 0.0035,-0.0339 7.93e-4,-0.005 0.0024,-0.009 0.0029,-0.014 1.8e-4,-0.002 -0.0021,-0.007 -2.64e-4,-0.006 0.0049,0.003 0.0077,0.008 0.01161,0.0128 0.03457,0.008 0.02498,0.0132 0.04874,1.5e-4 5.29e-4,-2.6e-4 -0.0016,-2.4e-4 -0.0021,2.2e-4 -0.0036,0.003 -0.0068,0.006 -0.01,0.009 -0.06432,0.066 0.02782,-0.0266 -0.02952,0.0308 -0.01593,0.0179 -0.03671,0.0474 -0.06052,0.055 -0.04503,0.0145 -0.07901,-0.008 -0.0873,-0.0531 -0.0013,-0.0423 0.0059,-0.0841 0.02199,-0.12339 0.01527,-0.0341 0.03037,-0.0683 0.04683,-0.10178 0.01939,-0.0334 0.03878,-0.067 0.06464,-0.096 0.01701,-0.0185 0.03049,-0.0395 0.04856,-0.0569 0.01654,-0.019 0.03381,-0.0373 0.04773,-0.0585 0.01312,-0.0219 0.03032,-0.0424 0.03261,-0.0686 0.0031,-0.0207 -0.0011,-0.0425 -0.0066,-0.0624 -0.01072,-0.0239 -0.02772,-0.045 -0.04377,-0.0654 -0.01894,-0.027 -0.04167,-0.0515 -0.05671,-0.0811 -0.02222,-0.0422 -0.03965,-0.0876 -0.04091,-0.13587 0.0013,-0.0431 0.0011,-0.088 0.01979,-0.12786 0.0159,-0.0269 0.0364,-0.0505 0.05508,-0.0755 0.03838,-0.0405 0.07896,-0.0789 0.118387,-0.11837 0.04705,-0.0469 0.0972,-0.0905 0.144894,-0.13664 0,0 0.07003,0.07 0.07003,0.07 z"
       inkscape:connector-curvature="0" />
    <path
       style="fill:#000000;stroke-width:0.26458332"
       id="path50"
       d="m 55.050446,176.58933 c -0.02008,0.0527 -0.03401,0.10782 -0.0463,0.16285 -0.01191,0.051 -0.02619,0.101 -0.04642,0.14927 -0.01143,0.0307 -0.01823,0.0628 -0.02954,0.0936 -0.0013,0.0133 -0.02014,0.0366 -0.01365,0.0505 0.0039,0.008 0.0011,-0.006 5.29e-4,-0.01 -0.0024,-0.0119 -0.02728,-0.0171 -0.01273,-0.0237 0.0088,-0.004 0.02574,-0.0113 0.03359,-0.0147 0.0047,-0.003 0.0093,-0.005 0.01413,-0.008 0.02862,-0.0152 0.04333,-0.0169 0.07592,-0.0135 0.0024,2.6e-4 -0.0048,-0.001 -0.0073,-0.002 -7.94e-4,-2.6e-4 -0.0027,-7e-5 -0.0024,-7.9e-4 0.0028,-0.005 0.03392,-0.0306 0.03995,-0.0363 0.02045,-0.0193 0.02791,-0.0453 0.03582,-0.0716 0.01463,-0.0517 0.0307,-0.10292 0.0466,-0.15422 0.01868,-0.0422 0.02532,-0.0875 0.03601,-0.1319 0.0021,-0.0127 0.0088,-0.0248 0.0083,-0.0378 0,0 0.0987,0.0102 0.0987,0.0102 v 0 c -0.0024,0.0176 -0.0058,0.0348 -0.01138,0.0517 -0.0123,0.0457 -0.01815,0.0933 -0.038,0.13683 -0.01588,0.0511 -0.03219,0.102 -0.04618,0.15366 -0.01307,0.0429 -0.02853,0.0849 -0.06271,0.11588 -0.02861,0.0261 -0.05522,0.0557 -0.09518,0.0634 -0.03247,-6e-5 -0.02912,0.002 -0.01466,-0.003 0.0011,-2.7e-4 -0.0021,-5.3e-4 -0.0031,-2.5e-4 -0.0079,0.003 -0.03088,0.0157 -0.03515,0.018 -0.03695,0.0163 -0.0835,0.0421 -0.123751,0.0186 -0.0093,-0.005 -0.01569,-0.0147 -0.02355,-0.022 -0.01984,-0.047 -0.01016,-0.0785 0.0076,-0.12384 0.01228,-0.032 0.01749,-0.0662 0.03135,-0.0976 0.01844,-0.0427 0.03114,-0.087 0.0419,-0.13229 0.01336,-0.0581 0.02837,-0.11609 0.04749,-0.1726 0,0 0.09407,0.0314 0.09407,0.0314 z"
       inkscape:connector-curvature="0" />
    <path
       style="fill:#000000;stroke-width:0.26458332"
       id="path52"
       d="m 54.897554,176.70104 c 0.01556,-0.0554 0.04878,-0.103 0.07681,-0.15249 0.01966,-0.0343 0.03827,-0.069 0.06114,-0.10128 0,0 0.07975,0.0583 0.07975,0.0583 v 0 c -0.0218,0.0284 -0.03729,0.0609 -0.05594,0.0914 -0.02503,0.0437 -0.05535,0.0859 -0.06769,0.13548 0,0 -0.09407,-0.0314 -0.09407,-0.0314 z"
       inkscape:connector-curvature="0" />
    <path
       style="fill:#000000;stroke-width:0.26458332"
       id="path54"
       d="m 55.456856,176.57954 c 0.01945,0.0394 0.03758,0.0796 0.05566,0.1197 0.01373,0.0324 0.03281,0.0619 0.04999,0.0925 0.0136,0.0272 0.0356,0.0479 0.05581,0.07 0.01762,0.015 0.0352,0.0314 0.05603,0.0419 0.0044,0.002 0.0087,0.005 0.01307,0.007 0,0 -0.0478,0.0866 -0.0478,0.0866 v 0 c -0.0044,-0.002 -0.0088,-0.005 -0.01318,-0.007 -0.02967,-0.017 -0.05709,-0.0382 -0.08149,-0.0622 -0.0249,-0.0279 -0.05164,-0.0545 -0.06874,-0.0883 -0.01836,-0.0332 -0.03881,-0.0652 -0.05351,-0.10038 -0.0163,-0.0366 -0.03285,-0.0732 -0.05094,-0.10888 0,0 0.0851,-0.0511 0.0851,-0.0511 z"
       inkscape:connector-curvature="0" />
  </g>
</svg>
